<svg id="visual" viewBox="0 0 900 600" width="900" height="600" xmlns="http://www.w3.org/2000/svg" xmlns:xlink="http://www.w3.org/1999/xlink" version="1.1"><path d="M0 490L129 457L257 491L386 537L514 436L643 536L771 461L900 517L900 601L771 601L643 601L514 601L386 601L257 601L129 601L0 601Z" fill="#1f1f1f"></path><path d="M0 510L129 479L257 506L386 483L514 545L643 539L771 485L900 543L900 601L771 601L643 601L514 601L386 601L257 601L129 601L0 601Z" fill="#1f1f1f"></path><path d="M0 574L129 581L257 528L386 564L514 525L643 557L771 575L900 522L900 601L771 601L643 601L514 601L386 601L257 601L129 601L0 601Z" fill="#1f1f1f"></path></svg>