<svg id="visual" viewBox="0 0 900 600" width="900" height="600" xmlns="http://www.w3.org/2000/svg" xmlns:xlink="http://www.w3.org/1999/xlink" version="1.1"><rect x="0" y="0" width="900" height="600" fill="#001220"></rect><path d="M0 204L129 191L257 214L386 214L514 160L643 125L771 139L900 121L900 601L771 601L643 601L514 601L386 601L257 601L129 601L0 601Z" fill="#64ffda"></path><path d="M0 340L129 267L257 348L386 279L514 220L643 187L771 252L900 247L900 601L771 601L643 601L514 601L386 601L257 601L129 601L0 601Z" fill="#57c1a6"></path><path d="M0 274L129 388L257 321L386 420L514 402L643 293L771 291L900 295L900 601L771 601L643 601L514 601L386 601L257 601L129 601L0 601Z" fill="#478675"></path><path d="M0 402L129 454L257 378L386 376L514 478L643 411L771 425L900 379L900 601L771 601L643 601L514 601L386 601L257 601L129 601L0 601Z" fill="#345048"></path><path d="M0 468L129 461L257 464L386 467L514 462L643 540L771 500L900 482L900 601L771 601L643 601L514 601L386 601L257 601L129 601L0 601Z" fill="#1f1f1f"></path></svg>