<svg id="visual" viewBox="0 0 900 600" width="900" height="600" xmlns="http://www.w3.org/2000/svg" xmlns:xlink="http://www.w3.org/1999/xlink" version="1.1"><rect x="0" y="0" width="900" height="600" fill="#0A192F"></rect><path d="M0 321L113 371L225 410L338 331L450 409L563 363L675 408L788 338L900 366L900 601L788 601L675 601L563 601L450 601L338 601L225 601L113 601L0 601Z" fill="#64ffda"></path><path d="M0 443L113 435L225 446L338 387L450 370L563 406L675 423L788 445L900 411L900 601L788 601L675 601L563 601L450 601L338 601L225 601L113 601L0 601Z" fill="#57c1a6"></path><path d="M0 424L113 429L225 481L338 474L450 490L563 457L675 449L788 441L900 447L900 601L788 601L675 601L563 601L450 601L338 601L225 601L113 601L0 601Z" fill="#478675"></path><path d="M0 489L113 520L225 489L338 510L450 511L563 517L675 469L788 473L900 482L900 601L788 601L675 601L563 601L450 601L338 601L225 601L113 601L0 601Z" fill="#345048"></path><path d="M0 555L113 539L225 532L338 560L450 522L563 543L675 558L788 533L900 527L900 601L788 601L675 601L563 601L450 601L338 601L225 601L113 601L0 601Z" fill="#1f1f1f"></path></svg>