<svg id="visual" viewBox="0 0 900 600" width="900" height="600" xmlns="http://www.w3.org/2000/svg" xmlns:xlink="http://www.w3.org/1999/xlink" version="1.1"><path d="M0 151L37.5 130C75 109 150 67 225 44C300 21 375 17 450 33C525 49 600 85 675 102C750 119 825 117 862.5 116L900 115L900 0L862.5 0C825 0 750 0 675 0C600 0 525 0 450 0C375 0 300 0 225 0C150 0 75 0 37.5 0L0 0Z" fill="#1b488b"></path><path d="M0 301L37.5 289C75 277 150 253 225 236C300 219 375 209 450 216C525 223 600 247 675 262C750 277 825 283 862.5 286L900 289L900 113L862.5 114C825 115 750 117 675 100C600 83 525 47 450 31C375 15 300 19 225 42C150 65 75 107 37.5 128L0 149Z" fill="#253d6e"></path><path d="M0 403L37.5 399C75 395 150 387 225 396C300 405 375 431 450 442C525 453 600 449 675 457C750 465 825 485 862.5 495L900 505L900 287L862.5 284C825 281 750 275 675 260C600 245 525 221 450 214C375 207 300 217 225 234C150 251 75 275 37.5 287L0 299Z" fill="#273352"></path><path d="M0 553L37.5 545C75 537 150 521 225 515C300 509 375 513 450 522C525 531 600 545 675 557C750 569 825 579 862.5 584L900 589L900 503L862.5 493C825 483 750 463 675 455C600 447 525 451 450 440C375 429 300 403 225 394C150 385 75 393 37.5 397L0 401Z" fill="#252938"></path><path d="M0 601L37.5 601C75 601 150 601 225 601C300 601 375 601 450 601C525 601 600 601 675 601C750 601 825 601 862.5 601L900 601L900 587L862.5 582C825 577 750 567 675 555C600 543 525 529 450 520C375 511 300 507 225 513C150 519 75 535 37.5 543L0 551Z" fill="#1f1f1f"></path></svg>